<mxfile host="app.diagrams.net" modified="2024-02-26T06:32:38.225Z" agent="Mozilla/5.0 (Windows NT 10.0; Win64; x64) AppleWebKit/537.36 (KHTML, like Gecko) Chrome/121.0.0.0 Safari/537.36" version="23.1.6" etag="5X19xwOwMW78__aRDmUx" type="github">
  <diagram name="Page-1" id="5dKJSl6v-6zuShPwm8Ij">
    <mxGraphModel>
      <root>
        <mxCell id="0" />
        <mxCell id="1" parent="0" />
      </root>
    </mxGraphModel>
  </diagram>
</mxfile>
